<svg xmlns="http://www.w3.org/2000/svg" viewBox="0 0 820 380" width="100%" fill="none">
  <defs>
    <marker id="arrow" markerWidth="8" markerHeight="6" refX="8" refY="3" orient="auto"><path d="M0,0 L8,3 L0,6" fill="#52525B"/></marker>
  </defs>
  <rect width="820" height="380" rx="12" fill="#18181B"/>
  <rect x="0.5" y="0.5" width="819" height="379" rx="12" fill="none" stroke="#3F3F46"/>
  <text x="410" y="36" text-anchor="middle" font-family="Inter, system-ui, sans-serif" font-size="15" font-weight="600" fill="#FAFAFA">Cost Estimation — Two-Layer Approach</text>

  <!-- Left path: Real-time -->
  <rect x="30" y="56" width="370" height="290" rx="8" fill="none" stroke="#22C55E30"/>
  <rect x="30" y="56" width="370" height="28" rx="8" fill="#22C55E10"/>
  <rect x="30" y="78" width="370" height="1" fill="#22C55E30"/>
  <text x="215" y="74" text-anchor="middle" font-family="Inter, system-ui, sans-serif" font-size="12" font-weight="600" fill="#22C55E">Real-time (Instant)</text>

  <rect x="55" y="96" width="320" height="36" rx="6" fill="#27272A" stroke="#3F3F46"/>
  <text x="215" y="118" text-anchor="middle" font-family="Inter, system-ui, sans-serif" font-size="11" fill="#FAFAFA">User configures project in form</text>
  <line x1="215" y1="132" x2="215" y2="148" stroke="#52525B" stroke-width="1" marker-end="url(#arrow)"/>

  <rect x="55" y="152" width="320" height="36" rx="6" fill="#27272A" stroke="#3F3F46"/>
  <text x="215" y="174" text-anchor="middle" font-family="Inter, system-ui, sans-serif" font-size="11" fill="#FAFAFA">fetchPrices(region) → AWS Pricing API</text>
  <line x1="215" y1="188" x2="215" y2="204" stroke="#52525B" stroke-width="1" marker-end="url(#arrow)"/>

  <rect x="55" y="208" width="320" height="36" rx="6" fill="#27272A" stroke="#3F3F46"/>
  <text x="215" y="224" text-anchor="middle" font-family="Inter, system-ui, sans-serif" font-size="11" fill="#FAFAFA">Σ (hourly_rate × 730h) per component</text>
  <text x="215" y="238" text-anchor="middle" font-family="Inter, system-ui, sans-serif" font-size="9" fill="#71717A">cached 24h · fallback rates if API fails</text>
  <line x1="215" y1="244" x2="215" y2="260" stroke="#52525B" stroke-width="1" marker-end="url(#arrow)"/>

  <rect x="55" y="264" width="320" height="44" rx="6" fill="#27272A" stroke="#22C55E"/>
  <text x="215" y="284" text-anchor="middle" font-family="Inter, system-ui, sans-serif" font-size="12" font-weight="500" fill="#22C55E">Cost Sidebar</text>
  <text x="215" y="300" text-anchor="middle" font-family="Inter, system-ui, sans-serif" font-size="10" fill="#A1A1AA">Updates as you type · approximate</text>

  <!-- Right path: Infracost -->
  <rect x="420" y="56" width="370" height="290" rx="8" fill="none" stroke="#8B5CF630"/>
  <rect x="420" y="56" width="370" height="28" rx="8" fill="#8B5CF610"/>
  <rect x="420" y="78" width="370" height="1" fill="#8B5CF630"/>
  <text x="605" y="74" text-anchor="middle" font-family="Inter, system-ui, sans-serif" font-size="12" font-weight="600" fill="#8B5CF6">Post-Plan (Precise)</text>

  <rect x="445" y="96" width="320" height="36" rx="6" fill="#27272A" stroke="#3F3F46"/>
  <text x="605" y="118" text-anchor="middle" font-family="Inter, system-ui, sans-serif" font-size="11" fill="#FAFAFA">Runner runs terraform plan</text>
  <line x1="605" y1="132" x2="605" y2="148" stroke="#52525B" stroke-width="1" marker-end="url(#arrow)"/>

  <rect x="445" y="152" width="320" height="36" rx="6" fill="#27272A" stroke="#3F3F46"/>
  <text x="605" y="174" text-anchor="middle" font-family="Inter, system-ui, sans-serif" font-size="11" fill="#FAFAFA">terraform show -json → plan.json</text>
  <line x1="605" y1="188" x2="605" y2="204" stroke="#52525B" stroke-width="1" marker-end="url(#arrow)"/>

  <rect x="445" y="208" width="320" height="36" rx="6" fill="#27272A" stroke="#3F3F46"/>
  <text x="605" y="224" text-anchor="middle" font-family="Inter, system-ui, sans-serif" font-size="11" fill="#FAFAFA">infracost breakdown --path plan.json</text>
  <text x="605" y="238" text-anchor="middle" font-family="Inter, system-ui, sans-serif" font-size="9" fill="#71717A">analyzes every Terraform resource</text>
  <line x1="605" y1="244" x2="605" y2="260" stroke="#52525B" stroke-width="1" marker-end="url(#arrow)"/>

  <rect x="445" y="264" width="320" height="44" rx="6" fill="#27272A" stroke="#8B5CF6"/>
  <text x="605" y="284" text-anchor="middle" font-family="Inter, system-ui, sans-serif" font-size="12" font-weight="500" fill="#8B5CF6">Plan Tab Breakdown</text>
  <text x="605" y="300" text-anchor="middle" font-family="Inter, system-ui, sans-serif" font-size="10" fill="#A1A1AA">Per-resource costs · final review</text>

  <!-- Bottom summary -->
  <text x="215" y="360" text-anchor="middle" font-family="Inter, system-ui, sans-serif" font-size="10" fill="#71717A">Quick feedback while configuring</text>
  <text x="605" y="360" text-anchor="middle" font-family="Inter, system-ui, sans-serif" font-size="10" fill="#71717A">Precise number for sign-off</text>
</svg>
