<svg xmlns="http://www.w3.org/2000/svg" viewBox="0 0 820 360" width="100%" fill="none">
  <defs>
    <marker id="arrow" markerWidth="8" markerHeight="6" refX="8" refY="3" orient="auto"><path d="M0,0 L8,3 L0,6" fill="#52525B"/></marker>
    <marker id="arrow-accent" markerWidth="8" markerHeight="6" refX="8" refY="3" orient="auto"><path d="M0,0 L8,3 L0,6" fill="#8B5CF6"/></marker>
    <marker id="arrow-green" markerWidth="8" markerHeight="6" refX="8" refY="3" orient="auto"><path d="M0,0 L8,3 L0,6" fill="#22C55E"/></marker>
    <marker id="arrow-red" markerWidth="8" markerHeight="6" refX="8" refY="3" orient="auto"><path d="M0,0 L8,3 L0,6" fill="#EF4444"/></marker>
  </defs>
  <rect width="820" height="360" rx="12" fill="#18181B"/>
  <rect x="0.5" y="0.5" width="819" height="359" rx="12" fill="none" stroke="#3F3F46"/>
  <text x="410" y="36" text-anchor="middle" font-family="Inter, system-ui, sans-serif" font-size="15" font-weight="600" fill="#FAFAFA">Job Queue — Lifecycle &amp; Atomic Claiming</text>

  <!-- QUEUED -->
  <rect x="30" y="80" width="110" height="60" rx="8" fill="#27272A" stroke="#F59E0B"/>
  <text x="85" y="106" text-anchor="middle" font-family="Inter, system-ui, sans-serif" font-size="13" font-weight="600" fill="#F59E0B">QUEUED</text>
  <text x="85" y="124" text-anchor="middle" font-family="Inter, system-ui, sans-serif" font-size="10" fill="#A1A1AA">User/CLI creates job</text>

  <line x1="140" y1="110" x2="172" y2="110" stroke="#52525B" stroke-width="1.5" marker-end="url(#arrow)"/>

  <!-- CLAIMED -->
  <rect x="180" y="80" width="130" height="60" rx="8" fill="#27272A" stroke="#8B5CF6" stroke-width="1.5"/>
  <text x="245" y="106" text-anchor="middle" font-family="Inter, system-ui, sans-serif" font-size="13" font-weight="600" fill="#8B5CF6">CLAIMED</text>
  <text x="245" y="124" text-anchor="middle" font-family="Inter, system-ui, sans-serif" font-size="10" fill="#A1A1AA">Tendril locks job</text>

  <!-- FOR UPDATE SKIP LOCKED annotation -->
  <rect x="165" y="155" width="160" height="40" rx="6" fill="#8B5CF610" stroke="#8B5CF640" stroke-dasharray="3 3"/>
  <text x="245" y="172" text-anchor="middle" font-family="Inter, system-ui, sans-serif" font-size="10" font-weight="500" fill="#8B5CF6">FOR UPDATE SKIP LOCKED</text>
  <text x="245" y="186" text-anchor="middle" font-family="Inter, system-ui, sans-serif" font-size="9" fill="#A1A1AA">exactly-once guarantee</text>
  <line x1="245" y1="155" x2="245" y2="144" stroke="#8B5CF640" stroke-width="1" stroke-dasharray="3 3"/>

  <line x1="310" y1="110" x2="342" y2="110" stroke="#8B5CF6" stroke-width="1.5" marker-end="url(#arrow-accent)"/>

  <!-- PROCESSING -->
  <rect x="350" y="80" width="150" height="60" rx="8" fill="#27272A" stroke="#3F3F46"/>
  <text x="425" y="106" text-anchor="middle" font-family="Inter, system-ui, sans-serif" font-size="13" font-weight="600" fill="#FAFAFA">PROCESSING</text>
  <text x="425" y="124" text-anchor="middle" font-family="Inter, system-ui, sans-serif" font-size="10" fill="#A1A1AA">Terraform executing</text>

  <!-- Log streaming annotation -->
  <rect x="360" y="155" width="130" height="32" rx="6" fill="#27272A" stroke="#3F3F46" stroke-dasharray="3 3"/>
  <text x="425" y="175" text-anchor="middle" font-family="Inter, system-ui, sans-serif" font-size="10" fill="#8B5CF6">↑ Log streaming (2s)</text>
  <line x1="425" y1="155" x2="425" y2="144" stroke="#3F3F4680" stroke-width="1" stroke-dasharray="3 3"/>

  <!-- SUCCESS -->
  <line x1="500" y1="98" x2="560" y2="80" stroke="#22C55E" stroke-width="1.5" marker-end="url(#arrow-green)"/>
  <rect x="565" y="58" width="110" height="44" rx="8" fill="#27272A" stroke="#22C55E"/>
  <text x="620" y="85" text-anchor="middle" font-family="Inter, system-ui, sans-serif" font-size="13" font-weight="600" fill="#22C55E">SUCCESS</text>

  <!-- FAILED -->
  <line x1="500" y1="118" x2="560" y2="136" stroke="#EF4444" stroke-width="1.5" marker-end="url(#arrow-red)"/>
  <rect x="565" y="114" width="110" height="44" rx="8" fill="#27272A" stroke="#EF4444"/>
  <text x="620" y="141" text-anchor="middle" font-family="Inter, system-ui, sans-serif" font-size="13" font-weight="600" fill="#EF4444">FAILED</text>

  <!-- CANCELLED -->
  <line x1="480" y1="140" x2="520" y2="180" stroke="#71717A" stroke-width="1" marker-end="url(#arrow)"/>
  <rect x="525" y="170" width="110" height="36" rx="8" fill="#27272A" stroke="#71717A"/>
  <text x="580" y="193" text-anchor="middle" font-family="Inter, system-ui, sans-serif" font-size="12" font-weight="500" fill="#71717A">CANCELLED</text>

  <!-- Sequence detail below -->
  <line x1="30" y1="230" x2="790" y2="230" stroke="#3F3F46" stroke-dasharray="4 4"/>
  <text x="410" y="256" text-anchor="middle" font-family="Inter, system-ui, sans-serif" font-size="12" font-weight="500" fill="#A1A1AA">Execution Flow</text>

  <!-- Flow boxes -->
  <rect x="30" y="274" width="120" height="36" rx="6" fill="#27272A" stroke="#3F3F46"/>
  <text x="90" y="296" text-anchor="middle" font-family="Inter, system-ui, sans-serif" font-size="10" fill="#FAFAFA">Create Job</text>
  <line x1="150" y1="292" x2="168" y2="292" stroke="#52525B" stroke-width="1" marker-end="url(#arrow)"/>

  <rect x="176" y="274" width="120" height="36" rx="6" fill="#27272A" stroke="#3F3F46"/>
  <text x="236" y="296" text-anchor="middle" font-family="Inter, system-ui, sans-serif" font-size="10" fill="#FAFAFA">Tendril Claims</text>
  <line x1="296" y1="292" x2="314" y2="292" stroke="#52525B" stroke-width="1" marker-end="url(#arrow)"/>

  <rect x="322" y="274" width="120" height="36" rx="6" fill="#27272A" stroke="#3F3F46"/>
  <text x="382" y="296" text-anchor="middle" font-family="Inter, system-ui, sans-serif" font-size="10" fill="#FAFAFA">Assume Credentials</text>
  <line x1="442" y1="292" x2="460" y2="292" stroke="#52525B" stroke-width="1" marker-end="url(#arrow)"/>

  <rect x="468" y="274" width="100" height="36" rx="6" fill="#27272A" stroke="#3F3F46"/>
  <text x="518" y="296" text-anchor="middle" font-family="Inter, system-ui, sans-serif" font-size="10" fill="#FAFAFA">Execute</text>
  <line x1="568" y1="292" x2="586" y2="292" stroke="#52525B" stroke-width="1" marker-end="url(#arrow)"/>

  <rect x="594" y="274" width="100" height="36" rx="6" fill="#27272A" stroke="#3F3F46"/>
  <text x="644" y="296" text-anchor="middle" font-family="Inter, system-ui, sans-serif" font-size="10" fill="#FAFAFA">Report Result</text>
  <line x1="694" y1="292" x2="712" y2="292" stroke="#52525B" stroke-width="1" marker-end="url(#arrow)"/>

  <rect x="720" y="274" width="70" height="36" rx="6" fill="#27272A" stroke="#22C55E50"/>
  <text x="755" y="296" text-anchor="middle" font-family="Inter, system-ui, sans-serif" font-size="10" fill="#22C55E">Finalize</text>

  <!-- Step numbers -->
  <text x="90" y="322" text-anchor="middle" font-family="Inter, system-ui, sans-serif" font-size="9" fill="#71717A">1</text>
  <text x="236" y="322" text-anchor="middle" font-family="Inter, system-ui, sans-serif" font-size="9" fill="#71717A">2</text>
  <text x="382" y="322" text-anchor="middle" font-family="Inter, system-ui, sans-serif" font-size="9" fill="#71717A">3</text>
  <text x="518" y="322" text-anchor="middle" font-family="Inter, system-ui, sans-serif" font-size="9" fill="#71717A">4</text>
  <text x="644" y="322" text-anchor="middle" font-family="Inter, system-ui, sans-serif" font-size="9" fill="#71717A">5</text>
  <text x="755" y="322" text-anchor="middle" font-family="Inter, system-ui, sans-serif" font-size="9" fill="#71717A">6</text>
</svg>
