<svg xmlns="http://www.w3.org/2000/svg" viewBox="0 0 820 400" width="100%" fill="none">
  <defs>
    <marker id="arrow" markerWidth="8" markerHeight="6" refX="8" refY="3" orient="auto"><path d="M0,0 L8,3 L0,6" fill="#52525B"/></marker>
    <marker id="arrow-accent" markerWidth="8" markerHeight="6" refX="8" refY="3" orient="auto"><path d="M0,0 L8,3 L0,6" fill="#8B5CF6"/></marker>
  </defs>
  <rect width="820" height="400" rx="12" fill="#18181B"/>
  <rect x="0.5" y="0.5" width="819" height="399" rx="12" fill="none" stroke="#3F3F46"/>
  <text x="410" y="36" text-anchor="middle" font-family="Inter, system-ui, sans-serif" font-size="15" font-weight="600" fill="#FAFAFA">Build, Release &amp; CI/CD Pipeline</text>

  <!-- Shared pipeline: Commit → release-please → Tag -->
  <rect x="30" y="66" width="150" height="44" rx="8" fill="#27272A" stroke="#3F3F46"/>
  <text x="105" y="86" text-anchor="middle" font-family="Inter, system-ui, sans-serif" font-size="11" font-weight="500" fill="#FAFAFA">Conventional Commit</text>
  <text x="105" y="100" text-anchor="middle" font-family="Inter, system-ui, sans-serif" font-size="9" fill="#71717A">feat(alethia): add …</text>
  <line x1="180" y1="88" x2="210" y2="88" stroke="#52525B" stroke-width="1.5" marker-end="url(#arrow)"/>

  <rect x="218" y="66" width="150" height="44" rx="8" fill="#27272A" stroke="#8B5CF6"/>
  <text x="293" y="86" text-anchor="middle" font-family="Inter, system-ui, sans-serif" font-size="11" font-weight="500" fill="#8B5CF6">release-please</text>
  <text x="293" y="100" text-anchor="middle" font-family="Inter, system-ui, sans-serif" font-size="9" fill="#71717A">auto PR + CHANGELOG</text>
  <line x1="368" y1="88" x2="398" y2="88" stroke="#8B5CF6" stroke-width="1.5" marker-end="url(#arrow-accent)"/>

  <rect x="406" y="66" width="100" height="44" rx="8" fill="#27272A" stroke="#3F3F46"/>
  <text x="456" y="86" text-anchor="middle" font-family="Inter, system-ui, sans-serif" font-size="11" font-weight="500" fill="#FAFAFA">Git Tag</text>
  <text x="456" y="100" text-anchor="middle" font-family="Inter, system-ui, sans-serif" font-size="9" fill="#71717A">alethia-v0.1.8</text>

  <!-- Fork -->
  <line x1="506" y1="78" x2="546" y2="78" stroke="#52525B" stroke-width="1.5"/>
  <line x1="546" y1="78" x2="546" y2="156" stroke="#52525B" stroke-width="1.5"/>
  <line x1="546" y1="78" x2="546" y2="280" stroke="#52525B" stroke-width="1.5"/>

  <!-- Alethia path -->
  <rect x="530" y="128" width="260" height="28" rx="6" fill="#22C55E10" stroke="#22C55E30"/>
  <text x="660" y="146" text-anchor="middle" font-family="Inter, system-ui, sans-serif" font-size="11" font-weight="600" fill="#22C55E">Alethia CLI Release</text>

  <line x1="546" y1="156" x2="546" y2="170" stroke="#52525B" stroke-width="1.5" marker-end="url(#arrow)"/>

  <rect x="530" y="174" width="120" height="36" rx="6" fill="#27272A" stroke="#3F3F46"/>
  <text x="590" y="196" text-anchor="middle" font-family="Inter, system-ui, sans-serif" font-size="11" fill="#FAFAFA">GoReleaser</text>

  <line x1="650" y1="192" x2="668" y2="192" stroke="#52525B" stroke-width="1" marker-end="url(#arrow)"/>

  <rect x="676" y="168" width="120" height="48" rx="6" fill="#27272A" stroke="#3F3F46"/>
  <text x="736" y="186" text-anchor="middle" font-family="Inter, system-ui, sans-serif" font-size="10" fill="#FAFAFA">4 binaries</text>
  <text x="736" y="200" text-anchor="middle" font-family="Inter, system-ui, sans-serif" font-size="9" fill="#71717A">darwin + linux</text>
  <text x="736" y="212" text-anchor="middle" font-family="Inter, system-ui, sans-serif" font-size="9" fill="#71717A">amd64 + arm64</text>

  <!-- Homebrew -->
  <rect x="530" y="224" width="120" height="28" rx="6" fill="#27272A" stroke="#3F3F46"/>
  <text x="590" y="242" text-anchor="middle" font-family="Inter, system-ui, sans-serif" font-size="10" fill="#FAFAFA">Homebrew Tap</text>
  <line x1="590" y1="210" x2="590" y2="220" stroke="#52525B" stroke-width="1" marker-end="url(#arrow)"/>

  <!-- Runner path -->
  <rect x="530" y="264" width="260" height="28" rx="6" fill="#F59E0B10" stroke="#F59E0B30"/>
  <text x="660" y="282" text-anchor="middle" font-family="Inter, system-ui, sans-serif" font-size="11" font-weight="600" fill="#F59E0B">Runner Release</text>

  <line x1="546" y1="292" x2="546" y2="308" stroke="#52525B" stroke-width="1.5" marker-end="url(#arrow)"/>

  <rect x="530" y="312" width="120" height="36" rx="6" fill="#27272A" stroke="#3F3F46"/>
  <text x="590" y="328" text-anchor="middle" font-family="Inter, system-ui, sans-serif" font-size="11" fill="#FAFAFA">Docker buildx</text>
  <text x="590" y="342" text-anchor="middle" font-family="Inter, system-ui, sans-serif" font-size="9" fill="#71717A">ARM64</text>

  <line x1="650" y1="330" x2="668" y2="330" stroke="#52525B" stroke-width="1" marker-end="url(#arrow)"/>

  <rect x="676" y="304" width="120" height="26" rx="6" fill="#27272A" stroke="#FF9900"/>
  <text x="736" y="321" text-anchor="middle" font-family="Inter, system-ui, sans-serif" font-size="10" fill="#FF9900">ECR</text>

  <rect x="676" y="338" width="120" height="26" rx="6" fill="#27272A" stroke="#3F3F46"/>
  <text x="736" y="355" text-anchor="middle" font-family="Inter, system-ui, sans-serif" font-size="10" fill="#FAFAFA">GHCR</text>

  <rect x="676" y="370" width="120" height="22" rx="6" fill="#27272A" stroke="#22C55E50"/>
  <text x="736" y="385" text-anchor="middle" font-family="Inter, system-ui, sans-serif" font-size="9" fill="#22C55E">ECS deploy</text>
  <line x1="736" y1="364" x2="736" y2="368" stroke="#52525B" stroke-width="1" marker-end="url(#arrow)"/>
</svg>
