<svg xmlns="http://www.w3.org/2000/svg" viewBox="0 0 820 420" width="100%" fill="none">
  <defs>
    <marker id="arrow" markerWidth="8" markerHeight="6" refX="8" refY="3" orient="auto"><path d="M0,0 L8,3 L0,6" fill="#52525B"/></marker>
    <marker id="arrow-aws" markerWidth="8" markerHeight="6" refX="8" refY="3" orient="auto"><path d="M0,0 L8,3 L0,6" fill="#FF9900"/></marker>
    <marker id="arrow-gcp" markerWidth="8" markerHeight="6" refX="8" refY="3" orient="auto"><path d="M0,0 L8,3 L0,6" fill="#4285F4"/></marker>
    <marker id="arrow-azure" markerWidth="8" markerHeight="6" refX="8" refY="3" orient="auto"><path d="M0,0 L8,3 L0,6" fill="#0078D4"/></marker>
  </defs>
  <rect width="820" height="420" rx="12" fill="#18181B"/>
  <rect x="0.5" y="0.5" width="819" height="419" rx="12" fill="none" stroke="#3F3F46"/>
  <text x="410" y="36" text-anchor="middle" font-family="Inter, system-ui, sans-serif" font-size="15" font-weight="600" fill="#FAFAFA">Zero-Credential Model — Cloud Provider Federation</text>
  <text x="410" y="54" text-anchor="middle" font-family="Inter, system-ui, sans-serif" font-size="11" fill="#A1A1AA">No static credentials stored. Every cloud access is temporary (1 hour) and revocable.</text>

  <!-- AWS Lane -->
  <rect x="30" y="74" width="250" height="320" rx="8" fill="none" stroke="#FF990040"/>
  <rect x="30" y="74" width="250" height="30" rx="8" fill="#FF990015"/>
  <rect x="30" y="96" width="250" height="2" fill="#FF990030"/>
  <text x="155" y="94" text-anchor="middle" font-family="Inter, system-ui, sans-serif" font-size="12" font-weight="600" fill="#FF9900">AWS</text>

  <rect x="55" y="118" width="200" height="36" rx="6" fill="#27272A" stroke="#3F3F46"/>
  <text x="155" y="140" text-anchor="middle" font-family="Inter, system-ui, sans-serif" font-size="11" fill="#FAFAFA">Runner requests access</text>

  <line x1="155" y1="154" x2="155" y2="172" stroke="#FF9900" stroke-width="1.5" marker-end="url(#arrow-aws)"/>

  <rect x="55" y="176" width="200" height="48" rx="6" fill="#27272A" stroke="#FF9900"/>
  <text x="155" y="196" text-anchor="middle" font-family="Inter, system-ui, sans-serif" font-size="11" font-weight="500" fill="#FF9900">STS AssumeRole</text>
  <text x="155" y="214" text-anchor="middle" font-family="Inter, system-ui, sans-serif" font-size="10" fill="#A1A1AA">RoleARN + External ID</text>

  <line x1="155" y1="224" x2="155" y2="242" stroke="#FF9900" stroke-width="1.5" marker-end="url(#arrow-aws)"/>

  <rect x="55" y="246" width="200" height="36" rx="6" fill="#27272A" stroke="#3F3F46"/>
  <text x="155" y="268" text-anchor="middle" font-family="Inter, system-ui, sans-serif" font-size="11" fill="#FAFAFA">Temp credentials (1h)</text>

  <line x1="155" y1="282" x2="155" y2="300" stroke="#52525B" stroke-width="1.5" marker-end="url(#arrow)"/>

  <rect x="55" y="304" width="200" height="36" rx="6" fill="#27272A" stroke="#22C55E50"/>
  <text x="155" y="326" text-anchor="middle" font-family="Inter, system-ui, sans-serif" font-size="11" fill="#22C55E">Terraform runs</text>

  <!-- GCP Lane -->
  <rect x="290" y="74" width="240" height="320" rx="8" fill="none" stroke="#4285F440"/>
  <rect x="290" y="74" width="240" height="30" rx="8" fill="#4285F415"/>
  <rect x="290" y="96" width="240" height="2" fill="#4285F430"/>
  <text x="410" y="94" text-anchor="middle" font-family="Inter, system-ui, sans-serif" font-size="12" font-weight="600" fill="#4285F4">GCP</text>

  <rect x="315" y="118" width="190" height="36" rx="6" fill="#27272A" stroke="#3F3F46"/>
  <text x="410" y="140" text-anchor="middle" font-family="Inter, system-ui, sans-serif" font-size="11" fill="#FAFAFA">Present OIDC token</text>

  <line x1="410" y1="154" x2="410" y2="172" stroke="#4285F4" stroke-width="1.5" marker-end="url(#arrow-gcp)"/>

  <rect x="315" y="176" width="190" height="48" rx="6" fill="#27272A" stroke="#4285F4"/>
  <text x="410" y="196" text-anchor="middle" font-family="Inter, system-ui, sans-serif" font-size="11" font-weight="500" fill="#4285F4">Workload Identity Fed.</text>
  <text x="410" y="214" text-anchor="middle" font-family="Inter, system-ui, sans-serif" font-size="10" fill="#A1A1AA">OIDC token exchange</text>

  <line x1="410" y1="224" x2="410" y2="242" stroke="#4285F4" stroke-width="1.5" marker-end="url(#arrow-gcp)"/>

  <rect x="315" y="246" width="190" height="36" rx="6" fill="#27272A" stroke="#3F3F46"/>
  <text x="410" y="268" text-anchor="middle" font-family="Inter, system-ui, sans-serif" font-size="11" fill="#FAFAFA">GCP access token (1h)</text>

  <line x1="410" y1="282" x2="410" y2="300" stroke="#52525B" stroke-width="1.5" marker-end="url(#arrow)"/>

  <rect x="315" y="304" width="190" height="36" rx="6" fill="#27272A" stroke="#22C55E50"/>
  <text x="410" y="326" text-anchor="middle" font-family="Inter, system-ui, sans-serif" font-size="11" fill="#22C55E">Terraform runs</text>

  <!-- Azure Lane -->
  <rect x="540" y="74" width="250" height="320" rx="8" fill="none" stroke="#0078D440"/>
  <rect x="540" y="74" width="250" height="30" rx="8" fill="#0078D415"/>
  <rect x="540" y="96" width="250" height="2" fill="#0078D430"/>
  <text x="665" y="94" text-anchor="middle" font-family="Inter, system-ui, sans-serif" font-size="12" font-weight="600" fill="#0078D4">Azure</text>

  <rect x="565" y="118" width="200" height="36" rx="6" fill="#27272A" stroke="#3F3F46"/>
  <text x="665" y="140" text-anchor="middle" font-family="Inter, system-ui, sans-serif" font-size="11" fill="#FAFAFA">Present OIDC token</text>

  <line x1="665" y1="154" x2="665" y2="172" stroke="#0078D4" stroke-width="1.5" marker-end="url(#arrow-azure)"/>

  <rect x="565" y="176" width="200" height="48" rx="6" fill="#27272A" stroke="#0078D4"/>
  <text x="665" y="196" text-anchor="middle" font-family="Inter, system-ui, sans-serif" font-size="11" font-weight="500" fill="#0078D4">Federated Identity</text>
  <text x="665" y="214" text-anchor="middle" font-family="Inter, system-ui, sans-serif" font-size="10" fill="#A1A1AA">Entra ID · OIDC credential</text>

  <line x1="665" y1="224" x2="665" y2="242" stroke="#0078D4" stroke-width="1.5" marker-end="url(#arrow-azure)"/>

  <rect x="565" y="246" width="200" height="36" rx="6" fill="#27272A" stroke="#3F3F46"/>
  <text x="665" y="268" text-anchor="middle" font-family="Inter, system-ui, sans-serif" font-size="11" fill="#FAFAFA">ARM access token (1h)</text>

  <line x1="665" y1="282" x2="665" y2="300" stroke="#52525B" stroke-width="1.5" marker-end="url(#arrow)"/>

  <rect x="565" y="304" width="200" height="36" rx="6" fill="#27272A" stroke="#22C55E50"/>
  <text x="665" y="326" text-anchor="middle" font-family="Inter, system-ui, sans-serif" font-size="11" fill="#22C55E">Terraform runs</text>
</svg>
